{"title":"Indian Summers S01E04 x264 RB58.mp4","uid":11744071,"size":538306632,"categoryP":"video","categoryS":"tv_shows","magnet":"?xt=urn:btih:742349c07ce0d46a70b6c08df89c9fdaca53f83e&amp;dn=Indian+Summers+S01E04+x264+RB58.mp4&amp;tr=udp%3A%2F%2Ftracker.openbittorrent.com%3A80&amp;tr=udp%3A%2F%2Fopen.demonii.com%3A1337&amp;tr=udp%3A%2F%2Ftracker.coppersurfer.tk%3A6969&amp;tr=udp%3A%2F%2Fexodus.desync.com%3A6969","seeders":5,"leechers":0,"uploader":"RedBaron58","files":1,"time":1425920895,"description":"Indian Summers S01E04 x264 mp4\n &lt;a href=&quot;\nhttp://www.imdb.com/title/tt3706628/&quot; rel=&quot;nofollow&quot; target=&quot;_NEW&quot;&gt;\nhttp://www.imdb.com/title/tt3706628/&lt;/a&gt;\n\nTrailer:\n\n\nThank you for your kind comments and feedback on my other torrents, your feedback is welcome.\n\n\nAbout the Episode:\nDrama set in 1932, telling the story of the decline of the British Empire and the birth of modern India. \nThere's much excitement in Simla as the Viceroy arrives for the first of his summer visits. \nRalph is troubled when he discovers the only piece of evidence that linked Chandru Mohan to the \nCongress Party has gone missing. Aafrin finds himself in danger when he learns there will be a search \nof the properties of all those who had access to the stolen item. \nIan is forced to grow up quickly when he receives sad news about his uncle, while Eugene threatens to \nreturn to Chicago with Madeleine. \nSarah receives information from England that sheds light on Alice's mysterious past.\n\nStarring Julie Walters, Henry Lloyd-Hughes, Jemima West and Craig Parkinson\n\n\nI hope you enjoy.\n\n\nTechnical:\n\nGeneral\nComplete name                            : H:Indian Summers S01E04 x264 RB58.mp4\nFormat                                   : MPEG-4\nFormat profile                           : Base Media\nCodec ID                                 : isom\nFile size                                : 513 MiB\nDuration                                 : 47mn 0s\nOverall bit rate                         : 1 527 Kbps\nWriting application                      : Lavf54.63.104\n\nVideo\nID                                       : 1\nFormat                                   : AVC\nFormat/Info                              : Advanced Video Codec\nFormat profile                           : &lt;a class=&quot;__cf_email__&quot; href=&quot;/cdn-cgi/l/email-protection&quot; data-cfemail=&quot;fdb5949a95bdb1ced3cd&quot;&gt;[email&amp;#160;protected]&lt;/a&gt;&lt;script cf-hash='f9e31' type=&quot;text/javascript&quot;&gt;\n/* &lt;![CDATA[ */!function(){try{var t=&quot;currentScript&quot;in document?document.currentScript:function(){for(var t=document.getElementsByTagName(&quot;script&quot;),e=t.length;e--;)if(t[e].getAttribute(&quot;cf-hash&quot;))return t[e]}();if(t&amp;&amp;t.previousSibling){var e,r,n,i,c=t.previousSibling,a=c.getAttribute(&quot;data-cfemail&quot;);if(a){for(e=&quot;&quot;,r=parseInt(a.substr(0,2),16),n=2;a.length-n;n+=2)i=parseInt(a.substr(n,2),16)^r,e+=String.fromCharCode(i);e=document.createTextNode(e),c.parentNode.replaceChild(e,c)}}}catch(u){}}();/* ]]&gt; */&lt;/script&gt;\nFormat settings, CABAC                   : Yes\nFormat settings, ReFrames                : 4 frames\nCodec ID                                 : avc1\nCodec ID/Info                            : Advanced Video Coding\nDuration                                 : 47mn 0s\nBit rate                                 : 1 400 Kbps\nWidth                                    : 832 pixels\nHeight                                   : 468 pixels\nDisplay aspect ratio                     : 16:9\nFrame rate mode                          : Constant\nFrame rate                               : 25.000 fps\nColor space                              : YUV\nChroma subsampling                       : 4:2:0\nBit depth                                : 8 bits\nScan type                                : Progressive\nBits/(Pixel*Frame)                       : 0.144\nStream size                              : 470 MiB (92%)\nWriting library                          : x264 core 123 r2189 35cf912\nEncoding settings                        : cabac=1 / ref=3 / deblock=1:0:0\n\nAudio\nID                                       : 2\nFormat                                   : AAC\nFormat/Info                              : Advanced Audio Codec\nFormat profile                           : LC\nCodec ID                                 : 40\nDuration                                 : 47mn 0s\nBit rate mode                            : Constant\nBit rate                                 : 119 Kbps\nChannel(s)                               : 2 channels\nChannel positions                        : Front: L R\nSampling rate                            : 48.0 KHz\nCompression mode                         : Lossy\nStream size                              : 40.0 MiB (8%)","torrent":{"xt":"urn:btih:742349c07ce0d46a70b6c08df89c9fdaca53f83e","amp;dn":"Indian+Summers+S01E04+x264+RB58.mp4","amp;tr":["udp%3A%2F%2Ftracker.openbittorrent.com%3A80","udp%3A%2F%2Fopen.demonii.com%3A1337","udp%3A%2F%2Ftracker.coppersurfer.tk%3A6969","udp%3A%2F%2Fexodus.desync.com%3A6969"],"infoHash":"742349c07ce0d46a70b6c08df89c9fdaca53f83e","infoHashBuffer":{"type":"Buffer","data":[116,35,73,192,124,224,212,106,112,182,192,141,248,156,159,218,202,83,248,62]},"announce":[],"urlList":[]}}